<svg width="25" height="24" viewBox="0 0 25 24" fill="none" xmlns="http://www.w3.org/2000/svg">
<path d="M8.32001 7.10498C8.52711 7.10498 8.69501 6.93709 8.69501 6.72998C8.69501 6.52287 8.52711 6.35498 8.32001 6.35498C8.1129 6.35498 7.94501 6.52287 7.94501 6.72998C7.94501 6.93709 8.1129 7.10498 8.32001 7.10498Z" fill="#020113"/>
<path d="M8.32001 8.46499V15.955M17.055 15.955V11.15C17.0537 10.3786 16.7467 9.63921 16.2012 9.09377C15.6558 8.54833 14.9164 8.24131 14.145 8.23999C13.3728 8.23999 12.6321 8.54642 12.0856 9.09201C11.539 9.63759 11.2313 10.3778 11.23 11.15M11.23 11.15V15.955M11.23 11.15V8.46499" stroke="#020113" stroke-linecap="round" stroke-linejoin="round"/>
<path d="M20.75 2.75H4.25C3.98478 2.75 3.73043 2.85536 3.54289 3.04289C3.35536 3.23043 3.25 3.48478 3.25 3.75V20.25C3.25 20.5152 3.35536 20.7696 3.54289 20.9571C3.73043 21.1446 3.98478 21.25 4.25 21.25H20.75C21.0152 21.25 21.2696 21.1446 21.4571 20.9571C21.6446 20.7696 21.75 20.5152 21.75 20.25V3.75C21.75 3.48478 21.6446 3.23043 21.4571 3.04289C21.2696 2.85536 21.0152 2.75 20.75 2.75Z" stroke="#020113" stroke-linecap="round" stroke-linejoin="round"/>
</svg>
