<svg width="24" height="24" viewBox="0 0 24 24" fill="none" xmlns="http://www.w3.org/2000/svg">
<path d="M3.75 2.75C3.48478 2.75 3.23043 2.85536 3.04289 3.04289C2.85536 3.23043 2.75 3.48478 2.75 3.75V20.25C2.75 20.5152 2.85536 20.7696 3.04289 20.9571C3.23043 21.1446 3.48478 21.25 3.75 21.25H20.25C20.5152 21.25 20.7696 21.1446 20.9571 20.9571C21.1446 20.7696 21.25 20.5152 21.25 20.25V3.75C21.25 3.48478 21.1446 3.23043 20.9571 3.04289C20.7696 2.85536 20.5152 2.75 20.25 2.75H3.75Z" stroke="#020113" stroke-linecap="round" stroke-linejoin="round"/>
<path d="M17.0025 14.8255C16.8374 15.1152 16.5984 15.3561 16.31 15.5235C16.0216 15.691 15.694 15.7791 15.3605 15.779C14.8593 15.779 14.3787 15.5799 14.0243 15.2256C13.6698 14.8713 13.4707 14.3907 13.4705 13.8895V12.6615C13.4705 12.1602 13.6696 11.6795 14.0241 11.3251C14.3785 10.9706 14.8593 10.7715 15.3605 10.7715C15.8617 10.7716 16.3423 10.9708 16.6966 11.3252C17.051 11.6797 17.25 12.1603 17.25 12.6615V13.2755H13.471" stroke="#020113" stroke-linecap="round" stroke-linejoin="round"/>
<path d="M9.868 11.9999C10.3639 12.008 10.8367 12.2107 11.1845 12.5642C11.5323 12.9177 11.7273 13.3938 11.7273 13.8897C11.7273 14.3856 11.5323 14.8617 11.1845 15.2152C10.8367 15.5687 10.3639 15.7714 9.868 15.7794H6.75V8.22095H9.868C10.3616 8.2323 10.8312 8.43636 11.1762 8.78947C11.5213 9.14259 11.7145 9.61672 11.7145 10.1104C11.7145 10.6042 11.5213 11.0783 11.1762 11.4314C10.8312 11.7845 10.3616 11.9886 9.868 11.9999ZM9.868 11.9999H6.75" stroke="#020113" stroke-width="0.866" stroke-linecap="round" stroke-linejoin="round"/>
<path d="M13.471 8.22095H17.25" stroke="#020113" stroke-linecap="round" stroke-linejoin="round"/>
</svg>
