<svg width="24" height="24" viewBox="0 0 24 24" fill="none" xmlns="http://www.w3.org/2000/svg">
<mask id="mask0_2_118" style="mask-type:alpha" maskUnits="userSpaceOnUse" x="0" y="0" width="24" height="24">
<rect width="24" height="24" fill="#D9D9D9"/>
</mask>
<g mask="url(#mask0_2_118)">
<path d="M19.1033 20.8555C17.0292 20.7055 15.0599 20.1979 13.1955 19.3327C11.3311 18.4675 9.65399 17.2923 8.16414 15.8072C6.67427 14.322 5.50506 12.6498 4.65651 10.7907C3.80796 8.9315 3.30036 6.96325 3.13369 4.88595C3.10036 4.40272 3.24581 3.98752 3.57004 3.64035C3.89426 3.2932 4.29954 3.11963 4.78589 3.11963H8.17176C8.67176 3.11963 9.08246 3.24716 9.40384 3.50223C9.72522 3.75731 9.94751 4.1171 10.0707 4.5816L10.6566 6.93485C10.7276 7.29284 10.7174 7.62364 10.6261 7.92725C10.5348 8.23089 10.366 8.49176 10.1196 8.70988L7.60981 11.0468C7.90546 11.5765 8.2417 12.0954 8.61851 12.6033C8.99531 13.1113 9.43128 13.6047 9.92641 14.0834C10.3798 14.5365 10.8428 14.9426 11.3152 15.3017C11.7877 15.6608 12.2746 15.9693 12.7761 16.2272L15.35 13.7707C15.587 13.5432 15.8525 13.3908 16.1468 13.3136C16.441 13.2364 16.7671 13.2334 17.125 13.3044L19.4185 13.837C19.8997 13.9769 20.2636 14.2004 20.5104 14.5077C20.7571 14.8149 20.8805 15.2091 20.8805 15.6903V19.1892C20.8805 19.6796 20.7024 20.0882 20.3462 20.4152C19.9901 20.7421 19.5757 20.8889 19.1033 20.8555ZM6.45979 8.77398L8.19566 7.15116L7.79491 5.56966H5.64784C5.71234 6.13704 5.81232 6.68331 5.94779 7.20848C6.08326 7.73365 6.25392 8.25548 6.45979 8.77398ZM15.1163 17.4446C15.6448 17.6538 16.1869 17.8234 16.7426 17.9537C17.2982 18.0839 17.8609 18.2001 18.4304 18.3023V16.1229L16.8381 15.7512L15.1163 17.4446Z" fill="#1C1B1F"/>
</g>
</svg>
