<svg width="24" height="24" viewBox="0 0 24 24" fill="none" xmlns="http://www.w3.org/2000/svg">
<mask id="mask0_4_131" style="mask-type:alpha" maskUnits="userSpaceOnUse" x="0" y="0" width="24" height="24">
<rect width="24" height="24" fill="#D9D9D9"/>
</mask>
<g mask="url(#mask0_4_131)">
<path d="M4.16956 20.4804C3.43114 20.4804 2.80486 20.2234 2.29073 19.7092C1.7766 19.1951 1.51953 18.5688 1.51953 17.8304V6.16956C1.51953 5.43114 1.7766 4.80487 2.29073 4.29073C2.80486 3.7766 3.43114 3.51953 4.16956 3.51953H19.8304C20.5688 3.51953 21.1951 3.7766 21.7092 4.29073C22.2234 4.80487 22.4804 5.43114 22.4804 6.16956V17.8304C22.4804 18.5688 22.2234 19.1951 21.7092 19.7092C21.1951 20.2234 20.5688 20.4804 19.8304 20.4804H4.16956ZM12 13.6076L4.16956 8.60763V17.8304H19.8304V8.60763L12 13.6076ZM12 11.1696L19.8304 6.16956H4.16956L12 11.1696ZM4.16956 8.60763V6.16956V17.8304V8.60763Z" fill="#1C1B1F"/>
</g>
</svg>
